<svg width="98" height="97" viewBox="0 0 98 97" fill="none" xmlns="http://www.w3.org/2000/svg">
<path d="M48.318 48.8588C45.7325 51.5687 44.8889 54.9588 44.2389 58.3997L44.235 58.421C43.9431 60.0993 43.861 61.9048 43.7869 63.5357C43.7828 63.6256 43.7787 63.715 43.7747 63.8039L43.7746 63.8045C43.7491 64.3655 43.6037 64.6475 43.4842 64.7883C43.3788 64.9126 43.1853 65.056 42.7735 65.1248C42.7726 65.1248 42.7716 65.1247 42.7705 65.1246C42.7404 65.1217 42.608 65.1089 42.3568 65.0156C42.0683 64.9085 41.7291 64.7344 41.3891 64.5122C41.05 64.2906 40.746 64.0445 40.5179 63.8143C40.4047 63.7 40.3211 63.6005 40.2638 63.521C40.204 63.4378 40.1907 63.4009 40.1946 63.4113C39.9347 62.727 39.2188 62.3303 38.5007 62.4726C38.1947 62.5333 37.9812 62.6722 37.8899 62.7363C37.779 62.8142 37.6929 62.8943 37.6335 62.9542C37.514 63.0749 37.4133 63.2055 37.3325 63.3214C37.1667 63.5594 37.0004 63.8576 36.8433 64.2006C36.526 64.8935 36.207 65.8555 36.0045 67.0697C35.5975 69.51 35.6603 72.9731 37.1569 77.3478L37.163 77.3653C37.5717 78.5137 38.1853 79.4782 38.9255 80.2962C31.5249 77.66 26.4938 71.8471 25.651 63.5784C24.7544 54.6681 27.8488 46.4727 33.6801 39.5839L33.6816 39.5821C34.1431 39.0351 34.6071 38.4924 35.0707 37.9501C37.5516 35.0483 40.0226 32.1581 42.0545 28.6913L42.0574 28.6863C43.9859 25.3669 45.6328 21.8518 46.1758 17.8153C46.1792 17.7903 46.1819 17.7652 46.184 17.74C46.1945 17.6137 46.2082 17.454 46.2241 17.2723C46.4885 17.5554 46.7656 17.8568 47.0486 18.1704C48.5958 19.8842 50.2064 21.8343 50.9566 23.1264C52.7714 26.337 53.8295 28.8004 54.44 31.3232C55.0526 33.8547 55.2346 36.5278 55.1991 40.1935L55.199 40.2081C55.199 40.3169 55.1943 40.4044 55.1879 40.523C55.1834 40.6061 55.1781 40.7045 55.1731 40.8363C55.1641 41.0697 55.1585 41.3862 55.2036 41.7215C55.326 44.2103 56.9997 47.7328 60.7666 48.1233L48.318 48.8588ZM48.318 48.8588C48.4501 48.6958 48.6182 48.5584 48.817 48.4599L48.8314 48.4528C49.4869 48.1279 50.2812 48.3233 50.7111 48.9153C50.8451 49.0997 50.9315 49.3059 50.9715 49.5182C51.1357 49.9958 51.2861 50.457 51.4323 50.9049C51.8746 52.2608 52.2775 53.4956 52.9033 54.6987C53.4729 55.6371 54.27 56.5804 55.1772 57.5755C55.4268 57.8494 55.6888 58.1312 55.955 58.4176C56.6275 59.1409 57.327 59.8934 57.9235 60.6204L57.9389 60.6395C60.2448 63.5456 61.8688 66.7777 62.1877 70.6885L62.1878 70.6895C62.4469 73.8927 61.7423 77.1472 59.8175 79.6891C64.4125 77.6121 68.085 74.2402 70.1848 69.6723C74.434 60.348 72.3261 50.2631 67.6823 41.8069C67.4542 42.7171 67.1744 43.6898 66.8384 44.563M48.318 48.8588L66.8384 44.563M66.8384 44.563C65.8279 47.2596 63.36 48.3948 60.7693 48.1236L66.8384 44.563Z" stroke="#00B5E2" stroke-width="3" stroke-linejoin="round"/>
</svg>
