<svg width="98" height="97" viewBox="0 0 98 97" fill="none" xmlns="http://www.w3.org/2000/svg">
<rect x="0.886017" width="96.228" height="96.228" rx="48.114" fill="white"/>
<path d="M15.8862 47.1125C15.8762 55.6065 19.2345 63.7576 25.2241 69.7776C31.2138 75.7976 39.3457 79.1949 47.8359 79.2241C51.8785 79.2305 55.8848 78.4621 59.6385 76.9606C61.6806 78.698 64.0448 80.0162 66.596 80.8399C68.6271 81.5671 70.7639 81.9555 72.921 81.9894C74.6576 82.0707 76.384 81.6813 77.9177 80.8622C78.1417 80.7204 78.3294 80.5282 78.4659 80.3009C78.6024 80.0736 78.6838 79.8175 78.7037 79.553C78.7236 79.2886 78.6814 79.0232 78.5805 78.778C78.4796 78.5328 78.3227 78.3146 78.1225 78.1409C78.0894 78.1127 74.8667 75.2851 74.1397 72.144C72.9467 66.9883 75.0931 63.8414 75.1768 63.722C75.2067 63.6805 75.234 63.6382 75.2598 63.5951C77.8186 59.3668 79.3641 54.6031 79.7751 49.6774C80.1861 44.7517 79.4514 39.7976 77.6287 35.2034C75.806 30.6092 72.9447 26.4996 69.269 23.1967C65.5933 19.8938 61.203 17.4873 56.4422 16.1656C51.6814 14.844 46.6794 14.6432 41.8281 15.5789C36.9767 16.5146 32.4079 18.5615 28.4795 21.5592C24.551 24.5568 21.3698 28.4238 19.1849 32.8571C17.0001 37.2904 15.871 42.1696 15.8862 47.1125ZM47.8359 18.3974C52.8927 18.4294 57.8516 19.796 62.2116 22.359C66.5716 24.922 70.1783 28.5907 72.6675 32.9945C75.1567 37.3984 76.4401 42.3814 76.3883 47.4403C76.3364 52.4993 74.9511 57.4549 72.3721 61.8068C71.9402 62.4462 69.3709 66.5967 70.8317 72.9104C71.3992 74.9929 72.4275 76.921 73.8404 78.5522C71.7476 78.6739 69.6524 78.3576 67.6887 77.6233C65.2912 76.9065 63.1045 75.6157 61.3182 73.8626C61.0818 73.5817 60.7607 73.3851 60.4031 73.3023C60.0456 73.2194 59.6708 73.2548 59.335 73.4031C55.7137 75.007 51.7962 75.8327 47.8359 75.8267C40.2491 75.788 32.9861 72.7456 27.6351 67.3648C22.284 61.984 19.2801 54.7024 19.2801 47.1121C19.2801 39.5217 22.284 32.2402 27.6351 26.8593C32.9861 21.4785 40.2491 18.4361 47.8359 18.3974Z" fill="#00B5E2"/>
<path d="M23.886 47.5714C23.8879 48.9363 24.2967 50.2697 25.0601 51.4012C25.8234 52.5327 26.9068 53.4109 28.1717 53.9237V59.5714C28.1726 60.4805 28.5342 61.352 29.1769 61.9948C29.8197 62.6376 30.6913 62.9991 31.6003 63H64.1718C65.0808 62.9991 65.9523 62.6376 66.5951 61.9948C67.2379 61.352 67.5994 60.4805 67.6003 59.5714V53.9237C68.7099 53.4763 69.6829 52.746 70.4222 51.8054C71.1616 50.8649 71.6416 49.747 71.8143 48.5632C71.987 47.3793 71.8465 46.1709 71.4067 45.0583C70.9669 43.9457 70.2432 42.9678 69.3078 42.222C69.1604 27.0056 53.1618 27 47.886 27C42.6102 27 26.6116 27.0056 26.4643 42.222C25.6604 42.8628 25.0111 43.6764 24.5648 44.6025C24.1184 45.5286 23.8864 46.5434 23.886 47.5714ZM30.7432 44.1429H34.2136L37.8632 51H30.7432C29.8339 51 28.9618 50.6388 28.3188 49.9958C27.6758 49.3528 27.3146 48.4807 27.3146 47.5714C27.3146 46.6621 27.6758 45.79 28.3188 45.1471C28.9618 44.5041 29.8339 44.1429 30.7432 44.1429ZM44.5228 52.3217C44.3234 52.4458 44.1006 52.5276 43.8683 52.562C43.636 52.5964 43.3991 52.5827 43.1724 52.5217C42.9456 52.4607 42.7338 52.3538 42.5501 52.2075C42.3664 52.0612 42.2147 51.8787 42.1045 51.6713L38.0976 44.1429H57.673L44.5228 52.3217ZM31.6003 59.5714V54.4286H39.9184C40.7336 55.2777 41.8158 55.8209 42.9837 55.9674C44.1517 56.1138 45.3345 55.8545 46.3341 55.233L47.6275 54.4286H64.1726L64.1743 59.5714H31.6003ZM65.0289 51H53.1401L64.1652 44.1429H65.0289C65.9382 44.1429 66.8103 44.5041 67.4533 45.1471C68.0963 45.79 68.4575 46.6621 68.4575 47.5714C68.4575 48.4807 68.0963 49.3528 67.4533 49.9958C66.8103 50.6388 65.9382 51 65.0289 51ZM29.9722 40.7143C30.7181 33.6186 36.3305 30.4286 47.886 30.4286C59.4416 30.4286 65.054 33.6186 65.7998 40.7143H29.9722Z" fill="#00B5E2"/>
<rect x="17.0073" y="81.0104" width="5" height="91.7669" rx="2.5" transform="rotate(-135 17.0073 81.0104)" fill="#00B5E2" stroke="white" stroke-width="2"/>
</svg>
