<svg width="98" height="97" viewBox="0 0 98 97" fill="none" xmlns="http://www.w3.org/2000/svg">
<path d="M65 19H75C78.866 19 82 22.134 82 26V74C82 77.866 78.866 81 75 81H29C25.134 81 22 77.866 22 74V26C22 22.134 25.134 19 29 19H39" stroke="#00B5E2" stroke-width="3"/>
<path d="M40.5 26H32C30.3431 26 29 27.3431 29 29V71C29 72.6569 30.3431 74 32 74H72C73.6569 74 75 72.6569 75 71V29C75 27.3431 73.6569 26 72 26H63.5" stroke="#00B5E2" stroke-width="3"/>
<rect x="39.5" y="13.5" width="25" height="17" rx="5.5" stroke="#00B5E2" stroke-width="3"/>
<path d="M54.7345 29.8054L48.5 21" stroke="#00B5E2" stroke-width="3" stroke-linecap="round"/>
</svg>
