<svg width="98" height="97" fill="none" xmlns="http://www.w3.org/2000/svg"><path d="M30.03 33.07a7.026 7.026 0 007.02-7.019 7.027 7.027 0 00-7.02-7.02 7.028 7.028 0 00-7.02 7.02 7.028 7.028 0 007.02 7.02zm0-11.305a4.291 4.291 0 014.285 4.286 4.291 4.291 0 01-4.285 4.286 4.291 4.291 0 01-4.287-4.286 4.291 4.291 0 014.287-4.286zm-5.759 14.501h0c.486-1.413 1.796-2.361 3.264-2.361h5.71a3.477 3.477 0 013.3 2.45h0l-.146.044.145-.044 6.319 20.554L24.27 36.266zm0 0L17.3 56.818s0 0 0 0a3.422 3.422 0 00.454 3.098 3.483 3.483 0 002.831 1.46h3.27m.416-25.11l-.416 25.11m-3.968-3.673h0c-.104.3.028.535.093.627a.74.74 0 00.605.313h4.64c.44 0 .852.21 1.11.567h0c.19.264.276.582.254.899v13.37c0 .39.332.721.72.721h5.446a.72.72 0 00.72-.72V60.02c0-.27.08-.534.23-.758a1.39 1.39 0 011.145-.62h4.714a.7.7 0 00.578-.29h0a.709.709 0 00.108-.638l-20.363-.011zm0 0l6.971-20.554s0 0 0 0c.11-.316.377-.51.677-.51h5.71c.303 0 .594.215.686.516h0l6.32 20.559-20.364-.011zm3.968 3.673V73.48a3.457 3.457 0 003.454 3.454h5.446a3.457 3.457 0 003.454-3.454V61.376h3.355a3.421 3.421 0 002.777-1.401c.658-.89.848-2.01.521-3.066l-19.007 4.467zM69.22 31.158c4.242 0 7.693-3.451 7.693-7.694 0-4.242-3.45-7.693-7.694-7.693-4.242 0-7.693 3.45-7.693 7.693 0 4.243 3.45 7.694 7.693 7.694zm0-12.653a4.966 4.966 0 014.96 4.96 4.966 4.966 0 01-4.96 4.96 4.966 4.966 0 01-4.96-4.96 4.966 4.966 0 014.96-4.96zm12.552 17.288h0a3.445 3.445 0 00-.873-2.647 3.484 3.484 0 00-2.578-1.136H60.096c-.97 0-1.899.412-2.55 1.13h0a3.459 3.459 0 00-.876 2.655h0l1.677 16.901s0 0 0 0c.159 1.76 1.662 3.139 3.426 3.139h.277V73.48a3.457 3.457 0 003.453 3.454h7.45a3.457 3.457 0 003.453-3.454l.001-17.645h.263c1.762 0 3.265-1.378 3.424-3.128 0 0 0 0 0 0l1.678-16.914zm-2.897-.81h0a.693.693 0 01.177.543s0 0 0 0l-1.68 16.922v.001a.717.717 0 01-.701.652s0 0 0 0h-1.63 0a1.37 1.37 0 00-1.368 1.366V73.48c0 .388-.332.72-.72.72h-7.45a.71.71 0 01-.719-.72V54.57l.001-.008v-.002a1.371 1.371 0 00-1.427-1.46h-1.585a.719.719 0 01-.704-.661v-.002l-1.678-16.91s0 0 0 0a.71.71 0 01.705-.785h18.225c.219 0 .413.086.554.24zM49.453 81.74c.756 0 1.367-.612 1.367-1.368v-68.04a1.366 1.366 0 10-2.734 0v68.04c0 .756.612 1.367 1.367 1.367z" fill="#00B5E2" stroke="#00B5E2" stroke-width=".304"/></svg>