<svg width="150" height="169" fill="none" xmlns="http://www.w3.org/2000/svg"><g clip-path="url(#clip0_44_246)"><path d="M146.395 144.554H.09V169h146.305v-24.446z" fill="#00B2E3"/><path d="M78.166 69.95c0 12.788-9.148 21.803-21.79 21.803-12.64 0-21.788-9.015-21.788-21.803 0-11.952 10.455-20.334 21.789-20.334 11.334 0 21.789 8.382 21.789 20.334zm-32.92.045c0 6.8 5.024 11.794 11.13 11.794 6.107 0 11.132-4.993 11.132-11.794 0-5.445-5.025-10.416-11.131-10.416-6.107 0-11.131 4.971-11.131 10.416zM.315 1.265h13.52l8.112 11.84 8.112-11.84h13.52L27.58 23.881v20.877H16.314V23.88L.315 1.265zm58.202 9.58v7.275h18.41v9.58h-18.41v7.5h19.108v9.558H47.251V1.265h30.374v9.58H58.517zm51.442 1.627c-2.208-1.74-5.047-2.892-8.021-2.892-2.208 0-5.16 1.22-5.16 3.637 0 2.418 3.267 3.502 5.363 4.158l3.087.858c6.466 1.785 11.446 4.858 11.446 11.884 0 4.316-1.104 8.767-4.799 11.726-3.628 2.892-8.495 4.09-13.182 4.09-5.858 0-11.582-1.853-16.336-4.97l5.182-9.106c3.02 2.485 6.602 4.496 10.726 4.496 2.839 0 5.858-1.333 5.858-4.383S99.369 27.7 96.8 27c-7.57-2.011-12.573-3.864-12.573-12.291C84.227 6.28 90.92.136 100.225.136c4.687 0 10.41 1.378 14.534 3.57l-4.8 8.766z" fill="#231F20"/><path d="M.36 50.926h12.28l7.37 10.732 7.367-10.732h12.28l-14.51 20.537V90.42H14.893V71.463L.361 50.926zm116.179 0v22.21c0 5.083-.203 10.099-4.123 13.94-3.29 3.253-8.45 4.405-13.07 4.405-4.618 0-9.756-1.152-13.046-4.405-3.92-3.819-4.123-8.857-4.123-13.94v-22.21h10.23v20.808c0 5.13.36 10.755 6.94 10.755 6.579 0 6.962-5.603 6.962-10.755V50.926h10.23zm-86.39 58.856c-2.096-2.824-5.476-4.338-8.99-4.338-6.265 0-10.501 4.813-10.501 10.958 0 6.145 4.281 10.755 10.658 10.755 3.357 0 6.692-1.627 8.833-4.203v12.314c-3.403 1.039-5.859 1.83-9.036 1.83-5.498 0-10.703-2.101-14.781-5.807C2.005 127.36 0 122.231 0 116.357c0-5.4 2.028-10.597 5.813-14.46 3.854-3.977 9.464-6.394 14.985-6.394 3.29 0 6.331.746 9.35 1.988v12.314-.023zm16.359 19.386l-2.704 6.868H32.943l15.142-39.493H59.26l14.85 39.493H63.18l-2.568-6.868H46.508zm7.142-21.532h-.112l-4.236 12.585h8.517l-4.169-12.585zm23.637-11.093h10.23l18.747 24.129h.113v-24.13h10.252v39.494h-10.252l-18.747-24.22h-.113v24.22h-10.23V96.543zm58.089 39.809c-5.002 0-9.17-4.021-9.17-9.06 0-5.038 4.01-9.331 9.17-9.331s9.171 4.157 9.171 9.196c0 5.038-4.146 9.195-9.171 9.195zm3.763-26.66h-7.526L125.349 0h20.077l-6.264 109.692h-.023zM150 134.07c0 1.288-.991 2.282-2.298 2.282s-2.321-.994-2.321-2.282c0-1.287 1.036-2.259 2.321-2.259 1.284 0 2.298 1.017 2.298 2.259zm-4.033 0c0 .995.743 1.808 1.757 1.808 1.014 0 1.713-.813 1.713-1.785s-.721-1.808-1.735-1.808c-1.014 0-1.735.814-1.735 1.808m1.397 1.152h-.519v-2.237c.203-.045.496-.067.857-.067.428 0 .631.067.788.158.113.09.203.271.203.497 0 .248-.18.452-.473.52.225.113.338.271.428.587.068.339.113.474.158.565h-.563s-.113-.271-.181-.542c-.045-.249-.18-.362-.473-.362h-.248v.904l.023-.023zm0-1.265h.248c.293 0 .518-.09.518-.339 0-.203-.158-.361-.496-.361-.135 0-.225 0-.293.045v.632l.023.023z" fill="#231F20"/></g><defs><clipPath id="clip0_44_246"><path fill="#fff" d="M0 0h150v169H0z"/></clipPath></defs></svg>