<svg width="121" height="120" viewBox="0 0 121 120" fill="none" xmlns="http://www.w3.org/2000/svg">
<g clip-path="url(#clip0_75_124)">
<rect x="0.900024" width="119.2" height="119.2" rx="59.6" fill="#00B5E2"/>
<path d="M51.2676 61.4633L48.262 53.0171C48.239 52.9573 48.2068 52.902 48.1653 52.8514L42.2323 45.8137C41.9147 45.4363 42.2323 44.8701 42.7156 44.9346L46.2322 45.4225C46.4439 45.4501 46.651 45.3534 46.7661 45.1693L48.018 43.1118C48.1331 42.9231 48.354 42.8219 48.575 42.8633L51.6911 43.4432C51.9028 43.4847 52.1191 43.3926 52.2388 43.2131L53.6427 41.082C53.7624 40.9025 53.9787 40.8104 54.1904 40.8519L57.1638 41.4134C57.3617 41.4502 57.5597 41.3766 57.6839 41.2201L59.456 38.9693C59.5849 38.8036 59.7966 38.73 59.9992 38.7806L62.7194 39.4204C62.9127 39.4664 63.1153 39.402 63.2441 39.2547L65.366 36.8474C65.4949 36.7001 65.6928 36.6357 65.8816 36.6771L68.634 37.2663C68.8043 37.3031 68.9792 37.2571 69.1081 37.1374L71.2668 35.1858C71.6075 34.8774 72.1598 35.1168 72.1644 35.577L72.2795 45.1555C72.2795 45.2153 72.2887 45.2752 72.3117 45.3304L78.056 61.4633" stroke="white" stroke-width="3.4713" stroke-linecap="round" stroke-linejoin="round"/>
<path d="M52.8418 51.3371L67.4097 46.1543" stroke="white" stroke-width="3.4713" stroke-linecap="round" stroke-linejoin="round"/>
<path d="M79.0778 127.481H41.0862C28.5067 127.481 18.8362 116.361 20.5715 103.906L25.4965 68.6022C26.0672 64.5103 29.57 61.4633 33.7033 61.4633H86.4607C90.594 61.4633 94.0968 64.5103 94.6675 68.6022L99.5925 103.906C101.332 116.361 91.6573 127.481 79.0778 127.481Z" stroke="white" stroke-width="3.4713" stroke-linecap="round" stroke-linejoin="round"/>
<path d="M84.6749 61.4632V40.1337C84.6749 27.3563 73.665 17 60.0821 17C46.4992 17 35.4893 27.3563 35.4893 40.1337V61.4632" stroke="white" stroke-width="3.4713" stroke-linecap="round" stroke-linejoin="round"/>
<path d="M43.8341 80.6983H76.33" stroke="white" stroke-width="3.4713" stroke-linecap="round" stroke-linejoin="round"/>
</g>
<defs>
<clipPath id="clip0_75_124">
<rect x="0.900024" width="119.2" height="119.2" rx="59.6" fill="white"/>
</clipPath>
</defs>
</svg>
