<svg width="121" height="120" viewBox="0 0 121 120" fill="none" xmlns="http://www.w3.org/2000/svg">
<rect x="0.899994" width="119.2" height="119.2" rx="59.6" fill="#00B5E2"/>
<path d="M78.2132 96.4047L74.5245 94.4662C74.3013 94.3481 74.03 94.3743 73.8375 94.5319L71.6321 96.3084C71.4265 96.4703 71.1464 96.4922 70.9189 96.3609L67.7071 94.4837C67.4884 94.3568 67.2127 94.37 67.0114 94.5231L64.6179 96.3171C64.4166 96.4703 64.141 96.4834 63.9222 96.3565L60.8636 94.5537C60.6623 94.4356 60.4085 94.44 60.2116 94.5625L57.363 96.3478C57.1574 96.479 56.8948 96.4747 56.6892 96.3478L53.9281 94.5712C53.7312 94.4444 53.4862 94.4356 53.2805 94.5494L49.9813 96.374C49.7844 96.4834 49.5393 96.479 49.3468 96.3609L46.5201 94.6238C46.3495 94.5187 46.1351 94.5012 45.9513 94.5756L42.7833 95.8796C42.2801 96.0852 41.7725 95.6039 41.9475 95.092L45.61 84.5247C45.6319 84.4591 45.645 84.389 45.645 84.319V34.887C45.645 34.8126 45.6319 34.7382 45.6056 34.6638L41.8119 24.5429C41.6106 24.0003 42.1794 23.4971 42.6914 23.764L46.3932 25.6893C46.6164 25.8075 46.8877 25.7768 47.0802 25.6193L49.2768 23.834C49.4781 23.6678 49.7625 23.6459 49.99 23.7771L53.2105 25.6456C53.4293 25.7725 53.705 25.755 53.9063 25.6018L56.2998 23.799C56.501 23.6459 56.7767 23.6284 56.9955 23.7596L60.0672 25.5537C60.2685 25.6718 60.5223 25.6674 60.7192 25.5449L63.5678 23.7509C63.7734 23.6196 64.0403 23.624 64.246 23.7509L67.007 25.5274C67.2039 25.6543 67.449 25.6631 67.6546 25.5493L70.9495 23.7246C71.1508 23.6152 71.3915 23.6196 71.584 23.7378L74.3976 25.4749C74.5682 25.5799 74.7826 25.5974 74.9708 25.5187L78.13 24.2103C78.6332 24.0003 79.1452 24.4816 78.9658 24.998L75.3165 35.644C75.2946 35.7096 75.2814 35.7796 75.2814 35.8496V85.2861C75.2814 85.3604 75.2946 85.4348 75.3208 85.5048L79.0927 95.6258C79.2939 96.1684 78.7207 96.6716 78.2088 96.4047H78.2132Z" stroke="white" stroke-width="3" stroke-linecap="round" stroke-linejoin="round"/>
<path d="M69.5318 85.343H51.3728" stroke="white" stroke-width="3" stroke-linecap="round" stroke-linejoin="round"/>
<path d="M51.3728 34.8301H69.5318" stroke="white" stroke-width="3" stroke-linecap="round" stroke-linejoin="round"/>
</svg>
