<svg width="121" height="120" viewBox="0 0 121 120" fill="none" xmlns="http://www.w3.org/2000/svg">
<rect x="0.899994" width="119.2" height="119.2" rx="59.6" fill="#00B5E2"/>
<path d="M72.1548 91.9618H53.9958" stroke="white" stroke-width="3" stroke-linecap="round" stroke-linejoin="round"/>
<path d="M81.72 102.245L77.9482 92.1238C77.922 92.0538 77.9088 91.9794 77.9088 91.905V42.4686C77.9088 42.3986 77.922 42.3285 77.9438 42.2629L78.2239 41.4447L54.7877 38.0185L74.8634 27.4731L73.275 17.2034C73.1919 16.6652 72.5136 16.4814 72.1679 16.8971L69.9801 19.5269C69.8488 19.6844 69.6519 19.7676 69.4506 19.7544L66.1514 19.5269C65.9238 19.5094 65.7051 19.6188 65.5825 19.8113L63.5128 22.9618C63.386 23.1543 63.1628 23.2637 62.9309 23.2418L59.6623 22.953C59.4172 22.9312 59.1853 23.0537 59.0628 23.2637L57.3738 26.1735C57.2556 26.3748 57.0368 26.4973 56.8006 26.4886L53.2475 26.3267C52.9937 26.3136 52.7574 26.458 52.648 26.6855L51.366 29.394C51.2566 29.6216 51.0247 29.766 50.7709 29.7528L47.0472 29.5953C46.7846 29.5822 46.544 29.7353 46.4433 29.976L45.3275 32.5752C45.2269 32.8071 45.0037 32.9558 44.7499 32.9558L40.5799 32.969C40.0023 32.969 39.731 33.6866 40.1642 34.0673L48.2286 41.2696C48.2286 41.2696 48.2549 41.3046 48.268 41.3221C48.268 41.4272 48.268 41.4884 48.268 41.4928V90.9161C48.268 90.9861 48.2549 91.0561 48.233 91.1217L44.5705 101.689C44.3911 102.201 44.9031 102.687 45.4063 102.477L48.5743 101.173C48.7624 101.094 48.9725 101.111 49.1431 101.221L51.9698 102.958C52.1623 103.076 52.4074 103.085 52.6043 102.971L55.9035 101.146C56.1048 101.033 56.3542 101.041 56.5511 101.168L59.3122 102.945C59.5179 103.076 59.7804 103.08 59.9861 102.945L62.8346 101.16C63.0359 101.033 63.2853 101.033 63.4866 101.151L66.5452 102.954C66.764 103.08 67.0396 103.067 67.2409 102.914L69.6344 101.12C69.8357 100.967 70.1114 100.954 70.3302 101.081L73.5419 102.958C73.7694 103.089 74.0495 103.067 74.2551 102.905L76.4605 101.129C76.6574 100.971 76.9287 100.945 77.1475 101.063L80.8362 103.002C81.3481 103.273 81.9213 102.765 81.72 102.223V102.245Z" stroke="white" stroke-width="3" stroke-linecap="round" stroke-linejoin="round"/>
<path d="M76.4144 40.2127C76.4144 35.9606 72.6876 32.5127 68.0916 32.5127H65.4144" stroke="white" stroke-width="3" stroke-linecap="round" stroke-linejoin="round"/>
</svg>
