<svg width="121" height="120" viewBox="0 0 121 120" fill="none" xmlns="http://www.w3.org/2000/svg">
<rect x="0.900002" width="119.2" height="119.2" rx="59.6" fill="#00B5E2"/>
<path d="M80.5162 38.7048C80.4864 38.7943 80.4685 38.8897 80.4685 38.9852V80.8658C80.4685 80.9672 80.4864 81.0687 80.5222 81.1641L85.6656 94.9654C85.9401 95.7053 85.1584 96.3915 84.4603 96.0275L79.4303 93.3842C79.126 93.2231 78.756 93.2589 78.4935 93.4737L75.4862 95.8962C75.2057 96.117 74.8238 96.1468 74.5136 95.9678L70.1339 93.4081C69.8356 93.235 69.4597 93.2529 69.1852 93.4618L65.9213 95.9082C65.6469 96.117 65.271 96.1349 64.9726 95.9619L60.8018 93.5035C60.5273 93.3424 60.1812 93.3484 59.9127 93.5155L56.0283 95.9499C55.7479 96.1289 55.3899 96.123 55.1094 95.9499L51.3444 93.5274C51.0759 93.3544 50.7417 93.3424 50.4613 93.4976L45.9623 95.9857C45.6938 96.1349 45.3596 96.1289 45.0971 95.9678L41.2425 93.599C41.0098 93.4558 40.7174 93.4319 40.4668 93.5334L36.1468 95.3115C35.4607 95.5919 34.7685 94.9356 35.0072 94.2375L40.0014 79.8275C40.0312 79.738 40.0491 79.6426 40.0491 79.5471V37.6785C40.0491 37.577 40.0312 37.4756 39.9954 37.3741L60.3423 48.7947L80.5222 38.7107L80.5162 38.7048Z" stroke="white" stroke-width="3" stroke-linecap="round" stroke-linejoin="round"/>
<path d="M72.622 80.9434H47.8597" stroke="white" stroke-width="3" stroke-linecap="round" stroke-linejoin="round"/>
<path d="M42.5731 38.5734V23C43.3368 23.531 44.1781 23.9845 45.097 24.3067C47.8597 25.2853 50.7536 25.0526 53.206 23.8831C54.3755 26.3355 56.4818 28.3403 59.2384 29.3189C61.9951 30.2974 64.895 30.0647 67.3474 28.8952C68.5169 31.3476 70.6232 33.3525 73.3798 34.331C74.7582 34.8203 76.1723 35.0053 77.5447 34.9217V40.0472" stroke="white" stroke-width="3" stroke-linecap="round" stroke-linejoin="round"/>
<path d="M58.9138 49.3763L46.3297 55.2179" stroke="white" stroke-width="3" stroke-linecap="round" stroke-linejoin="round"/>
<path d="M61.3297 49.8127L73.9078 55.6542" stroke="white" stroke-width="3" stroke-linecap="round" stroke-linejoin="round"/>
</svg>
