<svg width="177" height="31" viewBox="0 0 177 31" fill="none" xmlns="http://www.w3.org/2000/svg">
<path d="M15.54 0.468018L19.359 10.2516L29.8439 10.8604L21.7193 17.5158L24.3803 27.6756L15.54 22.0053L6.69971 27.6756L9.36072 17.5158L1.23611 10.8604L11.721 10.2516L15.54 0.468018Z" fill="#EE3A81"/>
<path d="M52.02 0.468262L55.839 10.2519L66.3239 10.8606L58.1993 17.516L60.8603 27.6759L52.02 22.0055L43.1797 27.6759L45.8407 17.516L37.7161 10.8606L48.201 10.2519L52.02 0.468262Z" fill="#EE3A81"/>
<path d="M88.5 0.468262L92.319 10.2519L102.804 10.8606L94.6793 17.516L97.3403 27.6759L88.5 22.0055L79.6597 27.6759L82.3207 17.516L74.1961 10.8606L84.681 10.2519L88.5 0.468262Z" fill="#EE3A81"/>
<path d="M124.98 0.468262L128.799 10.2519L139.284 10.8606L131.159 17.516L133.82 27.6759L124.98 22.0055L116.14 27.6759L118.801 17.516L110.676 10.8606L121.161 10.2519L124.98 0.468262Z" fill="#EE3A81"/>
<path d="M161.46 0.468018L165.279 10.2516L175.764 10.8604L167.639 17.5158L170.3 27.6756L161.46 22.0053L152.62 27.6756L155.281 17.5158L147.156 10.8604L157.641 10.2516L161.46 0.468018Z" fill="#DEDEDE"/>
<path d="M155.281 17.5156L152.62 27.6755L157.641 24.447V10.2515L147.156 10.8603L155.281 17.5156Z" fill="#EE3A81"/>
</svg>
