<svg width="176" height="31" fill="none" xmlns="http://www.w3.org/2000/svg"><path d="M15.04 0l3.819 9.784 10.485.608-8.125 6.656 2.661 10.16-8.84-5.67-8.84 5.67 2.66-10.16-8.124-6.656 10.485-.608L15.04 0zm36.48 0l3.819 9.784 10.485.608-8.125 6.656 2.661 10.16-8.84-5.67-8.84 5.67 2.66-10.16-8.124-6.656 10.485-.608L51.52 0zM88 0l3.819 9.784 10.485.608-8.125 6.656 2.661 10.16-8.84-5.67-8.84 5.67 2.66-10.16-8.124-6.656 10.485-.608L88 0zm36.48 0l3.819 9.784 10.485.608-8.125 6.656 2.661 10.16-8.84-5.67-8.84 5.67 2.661-10.16-8.125-6.656 10.485-.608L124.48 0zm36.48 0l3.819 9.784 10.485.608-8.125 6.656 2.661 10.16-8.84-5.67-8.84 5.67 2.661-10.16-8.125-6.656 10.485-.608L160.96 0z" fill="#00B5E2"/></svg>