<svg width="40" height="40" viewBox="0 0 40 40" fill="none" xmlns="http://www.w3.org/2000/svg">
<path d="M31.2 24.6001C31.7833 23.1834 32.1 21.6667 32.1 20.0001C32.1 18.8001 31.9166 17.6501 31.6 16.5834C30.5166 16.8334 29.3833 16.9667 28.2 16.9667C25.7766 16.9693 23.3881 16.3893 21.2359 15.2754C19.0836 14.1616 17.2307 12.5467 15.8333 10.5667C14.3399 14.1846 11.5195 17.0945 7.94998 18.7001C7.88331 19.1167 7.88331 19.5667 7.88331 20.0001C7.88331 21.5913 8.19672 23.1669 8.80564 24.6369C9.41456 26.107 10.3071 27.4427 11.4322 28.5679C13.7045 30.8402 16.7864 32.1167 20 32.1167C21.75 32.1167 23.4333 31.7334 24.95 31.0501C25.9 32.8667 26.3333 33.7667 26.3 33.7667C23.5666 34.6834 21.45 35.1334 20 35.1334C15.9666 35.1334 12.1166 33.5501 9.28331 30.7001C7.55839 28.9833 6.2771 26.8726 5.54998 24.5501H3.33331V16.9667H5.14998C5.70038 14.2876 6.9658 11.8074 8.81196 9.78939C10.6581 7.77136 13.0162 6.29075 15.6359 5.50467C18.2556 4.71859 21.0392 4.65636 23.6914 5.32458C26.3436 5.99281 28.7655 7.36656 30.7 9.30007C32.7996 11.3927 34.2321 14.0605 34.8166 16.9667H36.6666V24.5501H36.5666L30.6333 30.0001L21.8 29.0001V26.2167H29.85L31.2 24.6001ZM15.45 19.6167C15.95 19.6167 16.4333 19.8167 16.7833 20.1834C17.1351 20.538 17.3324 21.0173 17.3324 21.5167C17.3324 22.0162 17.1351 22.4955 16.7833 22.8501C16.4333 23.2001 15.95 23.4001 15.45 23.4001C14.4 23.4001 13.55 22.5667 13.55 21.5167C13.55 20.4667 14.4 19.6167 15.45 19.6167ZM24.5333 19.6167C25.5833 19.6167 26.4166 20.4667 26.4166 21.5167C26.4166 22.5667 25.5833 23.4001 24.5333 23.4001C23.4833 23.4001 22.6333 22.5667 22.6333 21.5167C22.6333 21.0128 22.8335 20.5296 23.1898 20.1732C23.5461 19.8169 24.0294 19.6167 24.5333 19.6167Z" fill="black"/>
</svg>
